<?xml version="1.0" encoding="UTF-8" standalone="no"?> <svg xmlns="http://www.w3.org/2000/svg" viewBox="0 0 351.12 512"><g id="Layer_2" data-name="Layer 2"><g id="_2666_-_Frozen_Food" data-name="2666 - Frozen Food"><path d="M291,80.25H60.17A60.26,60.26,0,0,1,0,20V10A10,10,0,0,1,14.37,1l37,18,37-18a10.07,10.07,0,0,1,8.74,0l37,18,37-18a10,10,0,0,1,8.73,0l37,18L254,1a10,10,0,0,1,8.73,0l37,18,37-18a10,10,0,0,1,14.37,9V20A60.26,60.26,0,0,1,291,80.25ZM20.47,26.2a40.25,40.25,0,0,0,39.7,34.05H291a40.25,40.25,0,0,0,39.7-34.06L304.09,39.08a10,10,0,0,1-8.73,0l-37-18-37,18a10,10,0,0,1-8.73,0l-37-18-37,18a10,10,0,0,1-8.73,0l-37-18-37,18a10,10,0,0,1-8.73,0Z"/><path d="M10,512A10,10,0,0,1,0,502V492a60.26,60.26,0,0,1,60.17-60.21H291A60.26,60.26,0,0,1,351.12,492v10a10,10,0,0,1-14.37,9l-37-18-37,18a10,10,0,0,1-8.73,0l-37-18-37,18a10,10,0,0,1-8.73,0l-37-18-37,18a10.07,10.07,0,0,1-8.74,0l-37-18-37,18A10,10,0,0,1,10,512Zm206.94-40.08a10,10,0,0,1,4.36,1l37,18,37-18a10,10,0,0,1,8.72,0l26.57,12.89A40.25,40.25,0,0,0,291,451.75H60.17a40.25,40.25,0,0,0-39.7,34.05L47,472.92a10,10,0,0,1,8.73,0l37,18,37-18a10,10,0,0,1,8.73,0l37,18,37-18A10,10,0,0,1,216.94,471.92Z"/><path d="M291.93,451.75H59.18A59.24,59.24,0,0,1,0,392.57V119.43A59.24,59.24,0,0,1,59.18,60.25H291.93a59.25,59.25,0,0,1,59.19,59.18V392.57A59.25,59.25,0,0,1,291.93,451.75ZM59.18,80.25A39.22,39.22,0,0,0,20,119.43V392.57a39.22,39.22,0,0,0,39.18,39.18H291.93a39.23,39.23,0,0,0,39.19-39.18V119.43a39.23,39.23,0,0,0-39.19-39.18Z"/><path d="M175.56,391.51c-74.67,0-135.42-60.79-135.42-135.51s60.75-135.51,135.42-135.51S311,181.28,311,256,250.23,391.51,175.56,391.51Zm0-251c-63.65,0-115.42,51.82-115.42,115.51s51.77,115.51,115.42,115.51S291,319.69,291,256,239.2,140.49,175.56,140.49Z"/><path d="M174.47,328a10,10,0,0,1-10-10V194a10,10,0,0,1,20,0V318A10,10,0,0,1,174.47,328Z"/><path d="M199.23,328a9.91,9.91,0,0,1-5.54-1.68l-19.22-12.82-19.22,12.82a10,10,0,0,1-11.1-16.64l24.77-16.52a10,10,0,0,1,11.1,0l24.77,16.52A10,10,0,0,1,199.23,328Z"/><path d="M174.47,220.56a9.92,9.92,0,0,1-5.55-1.69l-24.77-16.52a10,10,0,1,1,11.1-16.64l19.22,12.82,19.22-12.82a10,10,0,0,1,11.1,16.64L180,218.87A9.94,9.94,0,0,1,174.47,220.56Z"/><path d="M237.48,264.91H113.63a10,10,0,1,1,0-20H237.48a10,10,0,1,1,0,20Z"/><path d="M237.49,289.7a10,10,0,0,1-8.33-4.46l-16.51-24.79a10,10,0,0,1,0-11.09l16.51-24.78a10,10,0,0,1,16.65,11.09L233,254.91l12.82,19.24a10,10,0,0,1-8.32,15.55Z"/><path d="M113.62,289.7a10,10,0,0,1-8.31-15.55l12.82-19.24-12.82-19.24A10,10,0,1,1,122,224.58l16.52,24.78a10,10,0,0,1,0,11.09L122,285.24A10,10,0,0,1,113.62,289.7Z"/></g></g></svg>