<?xml version="1.0" encoding="UTF-8" standalone="no"?> <svg id="Layer_1" data-name="Layer 1" xmlns="http://www.w3.org/2000/svg" viewBox="0 0 64 64"><metadata><?xpacket begin="﻿" id="W5M0MpCehiHzreSzNTczkc9d"?>
<x:xmpmeta xmlns:x="adobe:ns:meta/" x:xmptk="Adobe XMP Core 6.0-c002 79.164352, 2020/01/30-15:50:38        ">
   <rdf:RDF xmlns:rdf="http://www.w3.org/1999/02/22-rdf-syntax-ns#">
      <rdf:Description rdf:about=""
            xmlns:dc="http://purl.org/dc/elements/1.1/"
            xmlns:xmp="http://ns.adobe.com/xap/1.0/"
            xmlns:xmpMM="http://ns.adobe.com/xap/1.0/mm/"
            xmlns:stEvt="http://ns.adobe.com/xap/1.0/sType/ResourceEvent#">
         <dc:subject>
            <rdf:Bag>
               <rdf:li>xiaolongbao</rdf:li>
               <rdf:li>steamed</rdf:li>
               <rdf:li>bun</rdf:li>
               <rdf:li>dimsum</rdf:li>
               <rdf:li>chinese</rdf:li>
               <rdf:li>buns</rdf:li>
               <rdf:li>steamed</rdf:li>
               <rdf:li>dumplings</rdf:li>
            </rdf:Bag>
         </dc:subject>
         <dc:creator>
            <rdf:Seq>
               <rdf:li>dDara</rdf:li>
            </rdf:Seq>
         </dc:creator>
         <xmp:MetadataDate>2022-11-13T15:00:28+07:00</xmp:MetadataDate>
         <xmpMM:InstanceID>xmp.iid:3e7b1494-9f33-492b-8a00-929a0bbec032</xmpMM:InstanceID>
         <xmpMM:DocumentID>xmp.did:f1a44cd7-f127-4b38-85a9-eb2f0b8e5c7a</xmpMM:DocumentID>
         <xmpMM:OriginalDocumentID>xmp.did:f1a44cd7-f127-4b38-85a9-eb2f0b8e5c7a</xmpMM:OriginalDocumentID>
         <xmpMM:History>
            <rdf:Seq>
               <rdf:li>
                  <rdf:Description>
                     <stEvt:action>saved</stEvt:action>
                     <stEvt:instanceID>xmp.iid:f1a44cd7-f127-4b38-85a9-eb2f0b8e5c7a</stEvt:instanceID>
                     <stEvt:when>2022-11-13T15:00:15+07:00</stEvt:when>
                     <stEvt:softwareAgent>Adobe Bridge 2020 (Macintosh)</stEvt:softwareAgent>
                     <stEvt:changed>/metadata</stEvt:changed>
                  </rdf:Description>
               </rdf:li>
               <rdf:li>
                  <rdf:Description>
                     <stEvt:action>saved</stEvt:action>
                     <stEvt:instanceID>xmp.iid:3e7b1494-9f33-492b-8a00-929a0bbec032</stEvt:instanceID>
                     <stEvt:when>2022-11-13T15:00:28+07:00</stEvt:when>
                     <stEvt:softwareAgent>Adobe Bridge 2020 (Macintosh)</stEvt:softwareAgent>
                     <stEvt:changed>/metadata</stEvt:changed>
                  </rdf:Description>
               </rdf:li>
            </rdf:Seq>
         </xmpMM:History>
      </rdf:Description>
   </rdf:RDF>
</x:xmpmeta>
                                                                                                    
                                                                                                    
                                             
<?xpacket end="w"?></metadata>
<path d="M60,25.91V25c0-2.437-2.911-4.427-8.658-5.918l-.3-.075L51.036,19l-3.816-5.11a2,2,0,0,0-2.242-.563l-2.171.843-1.175-.112a2.008,2.008,0,0,0-1.75.741c-.022.027-.041.054-.06.082l-1.43,2.211c-.1-.147-.216-.287-.312-.435L36.224,13.8a1.987,1.987,0,0,0-1.751-.743l-1.176.112-2.169-.843a2.022,2.022,0,0,0-2.285.615l-3.164,4.24L23.22,13.887a2,2,0,0,0-2.242-.563l-2.171.843-1.175-.112a2.007,2.007,0,0,0-1.75.741c-.022.027-.041.054-.06.082l-1.8,2.776c-.292.452-.616.9-.956,1.338l-.381.083C6.923,20.564,4,22.558,4,25v.91A3.9,3.9,0,0,0,2,29V43c0,5.252,15.092,8,30,8s30-2.748,30-8V29A3.9,3.9,0,0,0,60,25.91ZM58,25c0,.543-.466,1.133-1.358,1.723a13.876,13.876,0,0,0-3.1-4.882C56.78,23,58,24.21,58,25ZM41.443,16.046l.265.025c-.657,2.425-2.356,7.175-4.985,8.618a1,1,0,1,0,.963,1.753c2.569-1.411,4.242-4.843,5.2-7.516.443,2.041.626,4.515-.944,6.637a1,1,0,0,0,1.608,1.19c2.048-2.769,1.81-5.864,1.29-8.248,1.748,2.018,3.635,4.869,3.331,7.54a1,1,0,1,0,1.986.226c.491-4.3-3.155-8.584-5.39-10.765l.887-.37,3.774,5.057c.052.07.115.14.169.21l0,0a25.22,25.22,0,0,0,2.056,2.352,11.829,11.829,0,0,1,3.184,4.9c-3.922,1.7-11.337,3.186-21.313,3.326A4.67,4.67,0,0,1,33,28.775c0-1.883.916-3.657,2.8-5.423a25.46,25.46,0,0,0,3.451-3.961.9.9,0,0,0,.058-.084c.131-.188.271-.375.394-.565ZM34.6,14.966l1.8,2.776c.243.374.52.734.788,1.1-.288.383-.6.761-.919,1.135A25.479,25.479,0,0,1,34.377,15Zm-4.2-.778.9.349a25.156,25.156,0,0,0-3.037,3.547,1,1,0,1,0,1.642,1.142A20.523,20.523,0,0,1,31.262,17.5a12.56,12.56,0,0,0-.278,4.343,1,1,0,0,0,.991.869.972.972,0,0,0,.131-.009,1,1,0,0,0,.861-1.122,10.717,10.717,0,0,1,.245-3.639,23.834,23.834,0,0,0,1.613,3.566c-.132.129-.256.26-.391.388a12,12,0,0,0-2.5,3.19,17.246,17.246,0,0,0-2.844-3.727A22.643,22.643,0,0,1,27.036,19l-.111-.149Zm-12.96,1.858.265.025c-.657,2.425-2.356,7.175-4.985,8.618a1,1,0,1,0,.963,1.753c2.569-1.411,4.242-4.843,5.2-7.516.443,2.041.626,4.515-.944,6.637a1,1,0,0,0,1.608,1.19c2.048-2.769,1.81-5.864,1.29-8.248,1.748,2.018,3.635,4.869,3.331,7.54a1,1,0,1,0,1.986.226c.491-4.3-3.155-8.584-5.39-10.765l.887-.37,3.774,5.057a24.806,24.806,0,0,0,2.228,2.567C29.814,24.944,31,27.08,31,28.775a5.6,5.6,0,0,1-.044.7,2.825,2.825,0,0,1-.739,1.511c-9.884-.162-17.226-1.651-21.1-3.338A8.226,8.226,0,0,1,11.8,23.352a26.332,26.332,0,0,0,2.632-2.864.948.948,0,0,0,.062-.077c.431-.549.843-1.1,1.209-1.669Zm-6.934,5.772c-.026.025-.049.05-.075.075A10.5,10.5,0,0,0,7.3,26.678C6.447,26.1,6,25.529,6,25,6,24.2,7.238,22.979,10.509,21.818ZM4,43V41.993a13.18,13.18,0,0,0,3.755,1.6,1,1,0,1,0,.49-1.938A11.114,11.114,0,0,1,4,39.548V36.727a17.125,17.125,0,0,0,1.687.649A.972.972,0,0,0,6,37.427a1,1,0,0,0,.313-1.95A11.486,11.486,0,0,1,4,34.485V32.08c2.831,2,8.406,3.406,15,4.189v12C9.488,47.106,4,44.8,4,43Zm28,6c-4.05,0-7.73-.192-11-.516v-12c3.518.341,7.265.514,11,.514,11.653,0,23.418-1.679,28-4.92v2.406a11.613,11.613,0,0,1-2.313.991A1,1,0,0,0,58,37.427a.972.972,0,0,0,.313-.051A17.125,17.125,0,0,0,60,36.727v2.821a11.119,11.119,0,0,1-4.245,2.111,1,1,0,1,0,.49,1.938A13.18,13.18,0,0,0,60,41.993V43C60,45.505,49.348,49,32,49Zm0-14c-17.348,0-28-3.5-28-6a.991.991,0,0,1,.167-.48.972.972,0,0,0,1.8-.368c4.162,3.058,14.328,4.7,24.663,4.839h0Q31.317,33,32,33c10.793,0,21.686-1.655,26.031-4.848a.972.972,0,0,0,1.8.368A.991.991,0,0,1,60,29C60,31.505,49.348,35,32,35Z"/><path d="M24,39H23a1,1,0,0,0,0,2h1a1,1,0,0,0,0-2Z"/><path d="M24,44H23a1,1,0,0,0,0,2h1a1,1,0,0,0,0-2Z"/></svg>