<svg width="312" height="178" viewBox="0 0 312 178" fill="none" xmlns="http://www.w3.org/2000/svg">
<path d="M299.52 114.201C294.216 104.583 285.168 98.587 272.158 95.714C274.407 84.8595 272.691 73.5574 267.322 63.8614C263.063 55.8133 256.336 49.346 248.13 45.4109C239.925 41.4755 230.674 40.2808 221.739 42.0017C220.898 39.5756 219.855 37.2254 218.619 34.9754C215.858 29.8927 212.108 25.4147 207.591 21.8052C203.074 18.1958 197.881 15.5279 192.317 13.9589C186.826 12.4669 181.087 12.1211 175.457 12.943C169.826 13.765 164.425 15.7371 159.588 18.7368C157.196 20.1693 154.95 21.8323 152.88 23.7021C146.214 17.5144 137.708 13.6797 128.661 12.7832C119.614 11.8867 110.522 13.9776 102.773 18.7368C93.9963 24.1067 87.3734 32.3816 84.0531 42.1266C74.0803 40.3132 63.7897 42.2244 55.1307 47.4979C47.2618 52.3357 41.0502 59.456 37.3218 67.9123C33.5934 76.3689 32.5248 85.7607 34.2579 94.8396C25.9481 98.2366 18.8415 104.041 13.8496 111.508C8.85765 118.974 6.20796 127.763 6.24028 136.748C6.20159 147.872 10.192 158.633 17.4723 167.039C17.6024 167.19 17.7489 167.326 17.9091 167.445L18.1899 167.663C18.3688 167.808 18.5687 167.924 18.7827 168.007H19.0011C19.5791 168.359 20.2304 168.573 20.9043 168.632H290.691C291.002 168.662 291.315 168.662 291.627 168.632H292.095H292.5L293.28 168.194C293.519 168.032 293.739 167.843 293.936 167.632C300.533 160.539 304.646 151.49 305.653 141.851C306.661 132.212 304.508 122.507 299.52 114.201ZM39.8427 102.803C40.2127 102.783 40.5793 102.721 40.9347 102.615C41.9085 102.285 42.7506 101.65 43.3371 100.804C43.788 100.217 44.1053 99.5382 44.2669 98.8153C44.4285 98.0927 44.4307 97.3432 44.2731 96.6196C44.1571 96.1456 43.9674 95.6925 43.7115 95.2768C41.783 87.8489 42.2847 79.9979 45.143 72.8766C48.0015 65.7554 53.0656 59.739 59.5923 55.7109C63.4689 53.3422 67.7982 51.8127 72.3016 51.2209C76.8047 50.6291 81.3818 50.9885 85.7379 52.2758H86.0811H87.3603C87.6402 52.3082 87.9229 52.3082 88.2027 52.2758C89.0124 52.1106 89.7643 51.7349 90.3833 51.1868C91.002 50.6385 91.4659 49.9371 91.7283 49.153C91.8572 48.707 91.9099 48.2424 91.8843 47.7789C94.2415 39.1319 99.826 31.7205 107.484 27.0747C114.138 23.0282 122.01 21.4758 129.7 22.6938C137.39 23.9118 144.399 27.8212 149.48 33.7263L149.729 34.0074C149.972 34.1988 150.234 34.3662 150.509 34.507L151.04 34.8505C151.856 35.2131 152.76 35.3295 153.641 35.1853C154.522 35.041 155.342 34.6425 156 34.0386C156.355 33.6754 156.66 33.2657 156.905 32.8207C159.057 30.5367 161.514 28.561 164.206 26.9498C168.034 24.6186 172.3 23.1021 176.74 22.495C181.179 21.8879 185.696 22.2031 190.008 23.421C194.386 24.648 198.472 26.7425 202.026 29.5802C205.579 32.4178 208.527 35.941 210.694 39.9407C212.059 42.5323 213.107 45.2794 213.814 48.1224C213.814 48.1224 213.814 48.3098 213.814 48.4347C213.814 48.5596 213.814 48.7158 213.814 48.8407C213.799 49.0277 213.799 49.2157 213.814 49.4028C214.143 50.5638 214.888 51.5628 215.907 52.208C216.926 52.8535 218.147 53.0999 219.336 52.9003C219.93 52.7517 220.484 52.4747 220.959 52.0884C228.294 50.0561 236.102 50.5954 243.089 53.6176C250.075 56.6396 255.818 61.9621 259.366 68.7017C263.828 76.7592 265.087 86.2054 262.892 95.1519C262.575 95.9017 262.355 96.6886 262.236 97.494L262.049 98.0561C262.034 98.2432 262.034 98.4312 262.049 98.6182C262.034 98.7007 262.034 98.7856 262.049 98.8681V99.1803C262.018 99.4083 262.018 99.6394 262.049 99.8673C262.095 100.819 262.414 101.737 262.967 102.512C263.521 103.287 264.285 103.887 265.169 104.239C265.836 104.395 266.53 104.395 267.197 104.239C279.459 106.175 287.228 110.797 291.627 118.698C295.281 124.861 296.959 131.998 296.434 139.145C295.91 146.293 293.208 153.107 288.694 158.67H23.0883C18.2723 152.375 15.6429 144.677 15.6003 136.748C15.5155 129.246 17.8193 121.912 22.178 115.809C26.5367 109.706 32.7238 105.151 39.8427 102.803Z" fill="black"/>
<path d="M67.1115 122.258C67.5533 122.409 68.0176 122.482 68.4843 122.476C69.4865 122.463 70.4574 122.128 71.2549 121.521C72.0527 120.914 72.6342 120.067 72.9147 119.104C73.4451 117.293 86.9547 75.3845 152.818 73.4172C218.65 75.2284 232.16 117.136 232.721 119.104C232.994 120.068 233.569 120.918 234.361 121.531C235.153 122.143 236.12 122.486 237.12 122.508C237.576 122.496 238.027 122.422 238.462 122.289C239.663 121.888 240.661 121.034 241.243 119.909C241.826 118.784 241.947 117.476 241.582 116.262C240.989 114.201 225.888 65.5789 152.88 63.7677H151.976C79.6539 66.0161 64.6155 114.17 64.0539 116.231C63.6773 117.436 63.7862 118.741 64.3575 119.867C64.9288 120.993 65.9172 121.851 67.1115 122.258Z" fill="black"/>
</svg>
