<svg width="100" height="57" viewBox="0 0 100 57" fill="none" xmlns="http://www.w3.org/2000/svg">
<path d="M81.5 17.5L85.5 23L86 28L85.5 31L90 33L95 38L96.5 45.5L93 52.5H7L4 44.5L5 38L10.5 32L12.5 31V24L15.5 18.5L21.5 15H28L32.5 8L38.5 5.5L46 7L49 9.5L54 6.5L59 5.5L66 8L69 12.5L70.5 15L75 14.5L81.5 17.5Z" fill="white"/>
<path d="M96.0001 36.57C94.3001 33.49 91.4001 31.57 87.2301 30.65C87.9509 27.1741 87.4009 23.5549 85.6801 20.45C84.3152 17.8728 82.159 15.8018 79.529 14.5417C76.8989 13.2815 73.9339 12.8989 71.0701 13.45C70.8008 12.6731 70.4663 11.9205 70.0701 11.2C69.1852 9.5724 67.9834 8.13842 66.5356 6.98258C65.0878 5.82674 63.4233 4.97242 61.6401 4.47C59.8801 3.99221 58.0407 3.88148 56.2361 4.14468C54.4315 4.40789 52.7003 5.03941 51.1501 6C50.3834 6.45873 49.6633 6.99126 49.0001 7.59C46.8635 5.60856 44.1373 4.38059 41.2376 4.09351C38.3378 3.80642 35.4237 4.47598 32.9401 6C30.127 7.71958 28.0043 10.3694 26.9401 13.49C23.7437 12.9093 20.4454 13.5213 17.6701 15.21C15.148 16.7592 13.1571 19.0393 11.9621 21.7472C10.7671 24.4552 10.4246 27.4627 10.9801 30.37C8.31669 31.4578 6.03895 33.3164 4.43897 35.7075C2.83899 38.0985 1.98973 40.913 2.00009 43.79C1.98769 47.3523 3.26665 50.7983 5.60009 53.49C5.64179 53.5384 5.68874 53.582 5.74009 53.62L5.83009 53.69C5.88743 53.7362 5.95151 53.7733 6.02009 53.8H6.09009C6.27534 53.9127 6.48409 53.9811 6.70009 54H93.1701C93.2698 54.0098 93.3703 54.0098 93.4701 54H93.6201H93.7501L94.0001 53.86C94.0766 53.808 94.147 53.7476 94.2101 53.68C96.3246 51.4085 97.6429 48.5108 97.9658 45.4243C98.2887 42.3377 97.5987 39.2299 96.0001 36.57ZM12.7701 32.92C12.8887 32.9138 13.0062 32.8937 13.1201 32.86C13.4322 32.7541 13.7021 32.5508 13.8901 32.28C14.0346 32.0919 14.1363 31.8746 14.1881 31.6431C14.2399 31.4117 14.2406 31.1717 14.1901 30.94C14.1529 30.7882 14.0921 30.6431 14.0101 30.51C13.392 28.1314 13.5528 25.6173 14.4689 23.3369C15.3851 21.0565 17.0082 19.1299 19.1001 17.84C20.3426 17.0815 21.7302 16.5917 23.1736 16.4022C24.6169 16.2127 26.0839 16.3278 27.4801 16.74H27.5901H28.0001C28.0898 16.7504 28.1804 16.7504 28.2701 16.74C28.5296 16.6871 28.7706 16.5668 28.969 16.3913C29.1673 16.2157 29.316 15.9911 29.4001 15.74C29.4414 15.5972 29.4583 15.4484 29.4501 15.3C30.2056 12.531 31.9955 10.1577 34.4501 8.67C36.5827 7.37421 39.1059 6.87709 41.5706 7.26713C44.0354 7.65717 46.2818 8.90905 47.9101 10.8L47.9901 10.89C48.068 10.9513 48.1518 11.0049 48.2401 11.05L48.4101 11.16C48.6717 11.2761 48.9614 11.3134 49.2439 11.2672C49.5263 11.221 49.7891 11.0934 50.0001 10.9C50.1139 10.7837 50.2115 10.6525 50.2901 10.51C50.9798 9.77861 51.7673 9.14596 52.6301 8.63C53.8569 7.88349 55.2245 7.39788 56.6474 7.20346C58.0703 7.00904 59.518 7.10998 60.9001 7.5C62.3031 7.89291 63.6129 8.56361 64.7518 9.47232C65.8907 10.381 66.8355 11.5092 67.5301 12.79C67.9676 13.6199 68.3034 14.4996 68.5301 15.41C68.5301 15.41 68.5301 15.47 68.5301 15.51C68.5301 15.55 68.5301 15.6 68.5301 15.64C68.5254 15.6999 68.5254 15.7601 68.5301 15.82C68.6355 16.1918 68.8744 16.5117 69.201 16.7183C69.5276 16.925 69.9189 17.0039 70.3001 16.94C70.4904 16.8924 70.6679 16.8037 70.8201 16.68C73.171 16.0292 75.6738 16.2019 77.913 17.1697C80.1522 18.1374 81.9931 19.8418 83.1301 22C84.5602 24.5802 84.9638 27.6051 84.2601 30.47C84.1586 30.7101 84.0881 30.9621 84.0501 31.22L83.9901 31.4C83.9854 31.4599 83.9854 31.5201 83.9901 31.58C83.9852 31.6064 83.9852 31.6336 83.9901 31.66V31.76C83.9801 31.833 83.9801 31.907 83.9901 31.98C84.0049 32.2847 84.1071 32.5787 84.2844 32.8269C84.4617 33.0752 84.7067 33.2672 84.9901 33.38C85.2039 33.4299 85.4263 33.4299 85.6401 33.38C89.5701 34 92.0601 35.48 93.4701 38.01C94.6413 39.9836 95.1791 42.2689 95.011 44.5577C94.8429 46.8465 93.977 49.0287 92.5301 50.81H7.40009C5.85649 48.7941 5.01374 46.329 5.00009 43.79C4.9729 41.3878 5.71131 39.0393 7.10833 37.0849C8.50535 35.1306 10.4884 33.6718 12.7701 32.92Z" fill="black"/>
<path d="M21.5101 39.15C21.6517 39.1983 21.8005 39.2219 21.9501 39.22C22.2713 39.2157 22.5825 39.1085 22.8381 38.914C23.0938 38.7196 23.2802 38.4483 23.3701 38.14C23.5401 37.56 27.8701 24.14 48.9801 23.51C70.0801 24.09 74.4101 37.51 74.5901 38.14C74.6777 38.4486 74.8619 38.7209 75.1157 38.9171C75.3695 39.1133 75.6794 39.2229 76.0001 39.23C76.146 39.2262 76.2906 39.2027 76.4301 39.16C76.8151 39.0316 77.1349 38.7582 77.3216 38.3978C77.5083 38.0375 77.5472 37.6186 77.4301 37.23C77.2401 36.57 72.4001 21 49.0001 20.42H48.7101C25.5301 21.14 20.7101 36.56 20.5301 37.22C20.4094 37.606 20.4443 38.0238 20.6274 38.3844C20.8105 38.745 21.1273 39.0197 21.5101 39.15Z" fill="black"/>
</svg>
